<?xml version="1.0" encoding="UTF-8" standalone="no"?>
<!DOCTYPE svg PUBLIC "-//W3C//DTD SVG 1.1//EN" "http://www.w3.org/Graphics/SVG/1.1/DTD/svg11.dtd">
<svg width="100%" height="100%" viewBox="0 0 101 116" version="1.1" xmlns="http://www.w3.org/2000/svg" xmlns:xlink="http://www.w3.org/1999/xlink" xml:space="preserve" xmlns:serif="http://www.serif.com/" style="fill-rule:evenodd;clip-rule:evenodd;stroke-linejoin:round;stroke-miterlimit:2;">
    <g transform="matrix(1,0,0,1,-102,-192)">
        <path d="M105,305L200,300L195,200L105,195L105,305Z" style="fill:rgb(191,191,191);"/>
        <clipPath id="_clip1">
            <path d="M105,305L200,300L195,200L105,195L105,305Z"/>
        </clipPath>
        <g clip-path="url(#_clip1)">
            <g id="sprite-missing" transform="matrix(0.853208,0,0,0.853208,24.6792,34.0377)">
                <path d="M148.155,200.001C147.927,200 147.8,199.999 148,200C148.052,200 148.103,200.001 148.155,200.001C148.586,200.004 149.38,200.009 149,200.007C148.843,200.006 148.685,200.007 148.526,200.008C158.723,200.254 170.712,206.046 176.194,212.803C180.526,218.142 183.008,227.629 183.172,235.652C183.304,242.087 182.134,242.379 182.46,243.21C183.113,244.871 193.59,238.386 196.796,245.705C200.158,253.38 176.968,263.18 174.807,267.11C169.73,276.346 159.233,286.499 148.275,292.85C127.916,304.654 115.936,298.845 115.784,296.393C115.619,293.743 125.828,292.825 129.74,288.251C133.606,283.732 129.794,280.744 125.335,273.494C123.255,270.112 97.315,258.792 100.228,250.924C102.751,244.108 114.721,250.734 114.047,248.584C110.502,237.297 111.483,225.092 118.256,215.392C124.937,205.82 136.848,200.099 148.526,200.008C148.403,200.005 148.279,200.003 148.155,200.001ZM153.949,253.647C153.949,255.238 153.322,256.612 152.068,257.769C150.814,258.926 149.285,259.504 147.48,259.504C145.676,259.504 144.146,258.926 142.893,257.769C141.639,256.612 141.012,255.238 141.012,253.647C141.012,252.056 141.639,250.698 142.893,249.572C144.146,248.445 145.676,247.882 147.48,247.882C149.285,247.882 150.814,248.445 152.068,249.572C153.322,250.698 153.949,252.056 153.949,253.647ZM163.477,226.994C163.477,232.139 161.121,235.909 156.41,238.306C152.871,240.083 150.949,241.88 150.645,243.699C150.574,244.174 150.516,244.649 150.469,245.124C150.305,245.558 149.883,245.775 149.203,245.775C146.836,245.775 145.137,245.899 144.105,246.147C143.895,246.209 143.73,246.24 143.613,246.24C142.77,246.24 142.348,245.227 142.348,243.203C142.348,241.446 143.502,239.272 145.811,236.679C148.119,234.086 149.273,231.911 149.273,230.155C149.273,227.49 147.668,226.157 144.457,226.157C142.418,226.157 139.77,226.86 136.512,228.265C135.504,228.265 135,225.63 135,220.362C135,219.783 135.035,219.349 135.105,219.06C135.434,217.676 137.391,216.601 140.977,215.837C143.578,215.279 146.086,215 148.5,215C152.742,215 156.258,216.043 159.047,218.13C162,220.341 163.477,223.296 163.477,226.994Z" style="fill:none;stroke:rgb(190,29,29);stroke-width:2.45px;"/>
            </g>
        </g>
        <path d="M105,305L200,300L195,200L105,195L105,305Z" style="fill:none;stroke:rgb(191,191,191);stroke-width:2.43px;stroke-linecap:square;stroke-linejoin:miter;stroke-miterlimit:1.5;stroke-dasharray:2.43,4.87,0,0;"/>
    </g>
</svg>
